<?xml version="1.0" standalone="no"?><!DOCTYPE svg PUBLIC "-//W3C//DTD SVG 1.1//EN" "http://www.w3.org/Graphics/SVG/1.1/DTD/svg11.dtd"><svg t="1594261400733" class="icon" viewBox="0 0 1024 1024" version="1.1" xmlns="http://www.w3.org/2000/svg" p-id="19223" xmlns:xlink="http://www.w3.org/1999/xlink" width="200" height="200"><defs><style type="text/css"></style></defs><path d="M744.03125 90.125H279.96875C211.4140625 90.125 158.6796875 148.1328125 158.6796875 216.6875v585.3515625c0 68.5546875 52.734375 126.5625 116.015625 126.5625h469.3359375c63.28125 0 116.015625-58.0078125 116.015625-126.5625V216.6875c0-68.5546875-52.734375-126.5625-116.015625-126.5625zM316.8828125 290.515625h200.390625c15.8203125 0 26.3671875 10.546875 26.3671875 31.640625 0 15.8203125-10.546875 31.640625-26.3671875 31.640625H316.8828125c-15.8203125 0-26.3671875-10.546875-26.3671875-31.640625 5.2734375-21.09375 15.8203125-31.640625 26.3671875-31.640625z m384.9609375 442.96875H316.8828125c-15.8203125 0-26.3671875-15.8203125-26.3671875-31.640625s10.546875-31.640625 26.3671875-31.640625h384.9609375c15.8203125 0 26.3671875 10.546875 26.3671875 31.640625 0 15.8203125-10.546875 31.640625-26.3671875 31.640625z m0-195.1171875H316.8828125c-10.546875 0-21.09375-10.546875-21.09375-26.3671875s10.546875-31.640625 26.3671875-31.640625h384.9609375c15.8203125 0 26.3671875 15.8203125 26.3671875 31.640625-5.2734375 15.8203125-15.8203125 26.3671875-31.640625 26.3671875z m0 0" p-id="19224"></path></svg>