<?xml version="1.0" standalone="no"?><!DOCTYPE svg PUBLIC "-//W3C//DTD SVG 1.1//EN" "http://www.w3.org/Graphics/SVG/1.1/DTD/svg11.dtd"><svg t="1594261189152" class="icon" viewBox="0 0 1024 1024" version="1.1" xmlns="http://www.w3.org/2000/svg" p-id="10171" xmlns:xlink="http://www.w3.org/1999/xlink" width="200" height="200"><defs><style type="text/css"></style></defs><path d="M680.896 483.968L488.704 717.312a33.664 33.664 0 0 1-25.92 12.672h-0.192a33.664 33.664 0 0 1-25.92-12.992l-93.824-116.736a41.984 41.984 0 0 1 2.816-54.912 32.64 32.64 0 0 1 49.472 3.136l67.968 84.608 166.08-201.6a32.64 32.64 0 0 1 49.536-0.768 42.112 42.112 0 0 1 2.176 53.248m146.176-379.584H757.12v116.288c0.128 43.008-31.104 78.016-69.888 78.208H336.768c-38.784-0.192-70.016-35.2-69.952-78.208V143.68l-0.128-39.296H196.48c-38.464 0.064-69.696 34.688-69.76 77.44V882.56c0 42.752 31.36 77.504 69.76 77.504h631.04c38.528-0.064 69.696-34.688 69.76-77.44v-700.8c0-42.688-31.552-77.44-70.208-77.44" p-id="10172"></path><path d="M683.392 90.048A46.016 46.016 0 0 0 643.072 64H384.96c-17.28 0-32.256 10.496-40.32 26.048a56.896 56.896 0 0 0-6.656 26.368v51.648c0 28.992 21.056 52.48 46.976 52.48H643.2c25.856 0 46.848-23.488 46.848-52.48V116.48a56.32 56.32 0 0 0-6.592-26.368" p-id="10173"></path></svg>