<?xml version="1.0" standalone="no"?><!DOCTYPE svg PUBLIC "-//W3C//DTD SVG 1.1//EN" "http://www.w3.org/Graphics/SVG/1.1/DTD/svg11.dtd"><svg t="1585127326399" class="icon" viewBox="0 0 1024 1024" version="1.1" xmlns="http://www.w3.org/2000/svg" p-id="1795" xmlns:xlink="http://www.w3.org/1999/xlink" width="32" height="32"><defs><style type="text/css"></style></defs><path d="M384 640l384 0 0 64-384 0 0-64ZM384 384l384 0 0 64-384 0 0-64ZM384 512l384 0 0 64-384 0 0-64ZM384 768l384 0 0 64-384 0 0-64ZM128 64 640 64 640 128 704 128 704 64 704 0 640 0 64 0 64 832 64 896 128 896 192 896 192 832 128 832ZM256 192l0 832 640 0L896 192 256 192zM832 960 320 960 320 256l512 0L832 960z" p-id="1796" fill="#bfcbd9"></path></svg>