<?xml version="1.0" standalone="no"?><!DOCTYPE svg PUBLIC "-//W3C//DTD SVG 1.1//EN" "http://www.w3.org/Graphics/SVG/1.1/DTD/svg11.dtd"><svg t="1585126643770" class="icon" viewBox="0 0 1024 1024" version="1.1" xmlns="http://www.w3.org/2000/svg" p-id="907" xmlns:xlink="http://www.w3.org/1999/xlink" width="32" height="32"><defs><style type="text/css"></style></defs><path d="M457.5 202.2c-10.3 0-18.6 7-18.6 15.7 0 8.6 8.4 15.7 18.6 15.7h28v13c0 2.6 0.9 4.9 2.2 7 1.3 6.1 7.4 10.8 15 10.8 5.2 0 9.6-2.2 12.4-5.5 4.6-2.9 7.7-7.2 7.7-12.3v-13h21.7c10.3 0 18.7-7 18.7-15.7 0-8.6-8.4-15.7-18.7-15.7h-21.7v-19.5c0-8.7-8.4-15.7-18.7-15.7-10.3 0-18.6 7-18.6 15.7v19.5h-28zM321.4 311.7l-0.5 0.1c-3.7 0.7-26.1 5.2-46.9 10.3v-3.4c1.6-71.1 23.2-138.1 61.3-189.7l4.7-6.4 8.4-2.6c96.4-29.7 207.1-29.7 303.6 0l8.4 2.6 4.7 6.4c39.1 53 60.8 122.2 61.3 195.4-25-8.7-45.8-12.7-47.1-12.9l-0.4-0.1c-162.2-28.6-304.1-9.3-357.5 0.3z m276 280.7c125.9 23.9 232.2 99.9 284.2 206.8l1.2 3.2c4.8 16.7 64.7 88.4 37.9 119.4-10.5 12.2-82.5-2.2-119.7 0-34.4 2-131.1 4-288.7 6-157.7-2-254.4-4-288.7-6-37.3-2.2-108.5 12.2-119.1 0-26.7-31 32.4-102.7 37.1-119.4l1.2-3.2c49.6-102.1 148.8-175.8 266-203.1-70.3-39.2-120.9-122.8-131.5-225 15.7-4.4 40.8-9.9 56.1-12.9 39.2-7.1 178-27.9 333.4-0.2 2.2 0.4 29.6 6.1 55.6 17.4-11.2 97.2-58.8 177-125 217z" fill="" p-id="908"></path></svg>