<?xml version="1.0" standalone="no"?><!DOCTYPE svg PUBLIC "-//W3C//DTD SVG 1.1//EN" "http://www.w3.org/Graphics/SVG/1.1/DTD/svg11.dtd"><svg t="1594261069443" class="icon" viewBox="0 0 1024 1024" version="1.1" xmlns="http://www.w3.org/2000/svg" p-id="7934" xmlns:xlink="http://www.w3.org/1999/xlink" width="200" height="200"><defs><style type="text/css"></style></defs><path d="M959.397656 627.229394c0 32.334429 0 64.667835 0 97.002264-7.718799 10.07138-13.878079 22.103414-23.512507 29.766954-15.603373 12.412704-32.677237 23.605627-50.561559 32.406061-56.716746 27.90863-117.597325 42.75885-179.672102 52.387138-133.014456 20.632923-266.081101 20.237927-398.883733-2.170432-58.362222-9.848299-115.496477-24.526603-168.919201-50.737568-28.41926-13.94357-73.247234-56.124252-73.247234-61.652152 0-32.334429 0-64.667835 0-97.002264 0-7.689123 21.13025-33.342386 35.095309-44.102451 24.826432-19.129686 53.072753-31.743982 82.238003-42.538839 20.443611-7.567349 27.087938-31.17707 12.912078-47.922453-27.180036-32.108279-42.329061-68.980048-43.915186-110.945835-2.335185-61.780065 34.672684-102.868879 86.922698-108.004853 49.681516-4.88424 93.487208 24.345478 103.562681 73.195046 11.07422 53.692876-4.397147 101.097536-38.057781 143.057183-6.489808 8.089235-58.783825 86.331227-61.968353 198.677968 8.225335-18.954701 15.09172-36.779671 23.531949-53.824883 19.046798-38.461987 44.021609-72.54013 81.935104-94.183056 27.380604-15.629979 56.232722-28.741601 84.757382-42.284035 17.066701-8.102538 25.999141-20.516266 22.571065-38.173414-1.596358-8.223289-6.28924-16.483416-11.484565-23.267936-40.738843-53.195549-60.057841-111.906719-45.172829-178.735777 11.476379-51.52449 55.010895-85.935208 108.424408-87.931678 56.359612-2.106987 102.859669 27.699875 118.02302 79.042217 20.587897 69.710688 0.379647 131.363863-42.75578 186.871061-7.572466 9.743922-11.344373 19.813255-11.803837 31.530111-0.638543 16.295128 5.613858 24.89704 20.72502 30.90794 17.750269 7.060813 35.635615 13.914918 52.875255 22.094204 34.644031 16.436344 65.799612 37.543058 88.654132 69.323878 17.235546 23.966854 31.348985 49.5403 41.934065 77.079516 2.653433 6.9022 5.298679 13.808494 8.651031 22.546505 6.973832-15.734356 4.329609-118.456902-61.458747-198.684108-31.274284-38.138622-45.815465-81.939197-40.545438-131.564431 5.480828-51.613518 44.474934-86.569658 96.083335-86.275969 51.65752 0.293689 90.623997 35.665291 95.694479 86.947258 4.833075 48.8905-9.992585 91.784426-40.511669 129.507586-16.803711 20.770046 7.768941 48.866964 21.74321 55.150064C947.586656 586.189699 953.794032 618.0882 959.397656 627.229394z" p-id="7935"></path></svg>