<?xml version="1.0" standalone="no"?><!DOCTYPE svg PUBLIC "-//W3C//DTD SVG 1.1//EN" "http://www.w3.org/Graphics/SVG/1.1/DTD/svg11.dtd"><svg t="1594261231162" class="icon" viewBox="0 0 1024 1024" version="1.1" xmlns="http://www.w3.org/2000/svg" p-id="10927" xmlns:xlink="http://www.w3.org/1999/xlink" width="200" height="200"><defs><style type="text/css"></style></defs><path d="M901.12 266.24L529.066667 100.693333c-10.24-5.12-22.186667-5.12-34.133334 0L121.173333 266.24c-15.36 6.826667-23.893333 22.186667-23.893333 37.546667 0 17.066667 10.24 30.72 23.893333 37.546666L494.933333 508.586667c10.24 5.12 22.186667 5.12 34.133334 0l373.76-165.546667c15.36-6.826667 23.893333-20.48 23.893333-37.546667 0-17.066667-10.24-32.426667-25.6-39.253333z m0 0" p-id="10928"></path><path d="M512 718.506667c-5.12 0-11.946667-1.706667-17.066667-3.413334L121.173333 549.546667c-20.48-8.533333-30.72-34.133333-20.48-54.613334 8.533333-20.48 34.133333-30.72 54.613334-20.48L512 633.173333l356.693333-158.72c20.48-8.533333 46.08 0 54.613334 20.48s0 46.08-20.48 54.613334L529.066667 716.8c-5.12 1.706667-11.946667 3.413333-17.066667 1.706667z m0 0" p-id="10929"></path><path d="M512 926.72c-5.12 0-11.946667-1.706667-17.066667-3.413333L121.173333 757.76c-20.48-8.533333-30.72-34.133333-20.48-54.613333 8.533333-20.48 34.133333-30.72 54.613334-20.48L512 839.68 868.693333 682.666667c20.48-8.533333 46.08 0 54.613334 20.48s0 46.08-20.48 54.613333L529.066667 923.306667c-5.12 1.706667-11.946667 3.413333-17.066667 3.413333z m0 0" p-id="10930"></path></svg>