<?xml version="1.0" standalone="no"?><!DOCTYPE svg PUBLIC "-//W3C//DTD SVG 1.1//EN" "http://www.w3.org/Graphics/SVG/1.1/DTD/svg11.dtd"><svg t="1594261141154" class="icon" viewBox="0 0 1024 1024" version="1.1" xmlns="http://www.w3.org/2000/svg" p-id="9416" xmlns:xlink="http://www.w3.org/1999/xlink" width="200" height="200"><defs><style type="text/css"></style></defs><path d="M792.1152 533.8624c-49.2032 33.1776-108.032 52.4288-171.4176 52.4288-63.1296 0-121.8048-19.1488-170.8544-52.0192-132.7616 64.9216-224.4608 202.9056-224.4608 362.6496 0 169.0112 791.7568 166.656 791.7568 0 0-160.1536-91.8528-298.3424-225.024-363.0592zM354.6112 270.8992C354.6112 121.5488 473.7024 0.4096 620.7488 0.4096s266.1376 121.088 266.1376 270.4896c0 149.3504-119.0912 270.3872-266.1376 270.3872S354.6112 420.2496 354.6112 270.8992z m-176.0768 640c0 6.1952 0.9216 12.0832 2.7648 17.8688-99.9936-16.2304-174.6432-48.2304-174.6432-96.512 0-138.24 79.3088-257.6896 194.2528-313.856a264.28416 264.28416 0 0 0 139.3152 44.9536c-98.7136 82.5344-161.6896 207.616-161.6896 347.5456z m131.7888-640c0-68.6592 21.6064-132.1984 58.2656-183.9616-6.4512-0.5632-12.8-0.8192-19.2512-0.8192-120.9856 0-219.0848 99.6352-219.0848 222.6176s97.9968 222.6176 219.0336 222.6176c27.2384 0 53.2992-5.0688 77.312-14.336-70.8608-57.8048-116.2752-146.5344-116.2752-246.1184z m0 0" p-id="9417"></path></svg>